<?xml version="1.0" standalone="no"?>
<!DOCTYPE svg PUBLIC "-//W3C//DTD SVG 20010904//EN"
 "http://www.w3.org/TR/2001/REC-SVG-20010904/DTD/svg10.dtd">
<svg version="1.0" xmlns="http://www.w3.org/2000/svg"
 width="500.000000pt" height="500.000000pt" viewBox="0 0 500.000000 500.000000"
 preserveAspectRatio="xMidYMid meet">
<metadata>
Created by potrace 1.14, written by Peter Selinger 2001-2017
</metadata>
<g transform="translate(0.000000,500.000000) scale(0.100000,-0.100000)"
fill="#000000" stroke="none">
<path d="M2245 4989 c-385 -58 -566 -111 -851 -250 -224 -109 -441 -261 -628
-440 -73 -70 -100 -89 -122 -89 -75 0 -157 -48 -190 -111 -8 -17 -14 -57 -14
-102 0 -67 -3 -78 -37 -133 -127 -206 -210 -381 -278 -589 -241 -732 -128
-1548 303 -2175 106 -154 167 -227 316 -375 209 -207 388 -336 651 -466 237
-117 483 -195 745 -236 163 -25 557 -25 720 0 149 24 366 79 499 128 228 84
506 240 704 396 91 71 316 296 388 388 361 457 549 992 549 1567 0 459 -131
919 -376 1315 -64 103 -64 104 -64 179 0 46 -6 86 -14 103 -33 63 -115 111
-190 111 -22 0 -49 20 -125 91 -481 457 -1095 702 -1745 698 -100 -1 -208 -5
-241 -10z m565 -139 c337 -44 718 -187 999 -374 113 -76 240 -177 295 -235
l30 -31 -1634 0 -1634 0 35 36 c112 118 346 278 554 380 243 118 516 199 779
229 136 16 437 13 576 -5z m1532 -862 l38 -41 0 -967 0 -968 -22 -6 c-30 -8
-3686 -8 -3715 0 l-23 6 0 968 0 967 38 41 39 42 1803 0 1803 0 39 -42z
m-3887 -2457 c31 -53 84 -90 146 -101 37 -7 685 -9 1935 -8 l1879 3 45 25 c24
14 58 45 75 68 l30 44 5 1041 5 1041 62 -130 c357 -747 295 -1631 -165 -2324
-135 -203 -352 -434 -543 -577 -715 -535 -1655 -629 -2454 -244 -247 119 -419
239 -617 430 -395 380 -633 855 -709 1411 -19 140 -17 469 5 610 39 258 106
480 209 694 l62 130 5 -1040 c5 -1016 5 -1040 25 -1073z m2450 236 c20 -16 28
-35 32 -69 5 -42 3 -50 -25 -78 l-30 -30 -382 0 -382 0 -29 29 c-23 23 -29 38
-29 71 0 33 6 48 29 71 l29 29 381 0 380 0 26 -23z"/>
<path d="M2125 1358 c-17 -46 -85 -254 -85 -260 0 -4 207 -8 460 -8 253 0 460
4 460 8 0 4 -20 66 -43 137 l-44 130 -372 3 c-292 2 -373 0 -376 -10z"/>
<path d="M1547 1019 c-59 -14 -134 -56 -177 -99 -37 -37 -80 -107 -80 -130 0
-7 379 -10 1210 -10 831 0 1210 3 1210 10 0 24 -43 93 -81 131 -23 23 -71 55
-107 72 l-67 32 -935 2 c-524 1 -952 -3 -973 -8z"/>
<path d="M2132 1734 c-30 -20 -30 -68 0 -88 19 -14 71 -16 368 -16 382 0 390
1 390 60 0 59 -8 60 -390 60 -297 0 -349 -2 -368 -16z"/>
</g>
</svg>
